<svg xmlns="http://www.w3.org/2000/svg" viewBox="0 0 300 300"><path d="M149.996 0C67.157 0 .001 67.161.001 149.997S67.157 300 149.996 300s150.003-67.163 150.003-150.003S232.835 0 149.996 0zm75.367 123.302l-36.686 36.686a20.927 20.927 0 01-14.895 6.17 20.94 20.94 0 01-14.895-6.168l-1.437-1.437-3.906 3.906 1.434 1.434c8.214 8.214 8.214 21.579 0 29.793l-36.681 36.686a20.929 20.929 0 01-14.898 6.17 20.933 20.933 0 01-14.9-6.173L74.634 216.5c-8.214-8.209-8.214-21.573-.003-29.79l36.689-36.684c3.979-3.979 9.269-6.17 14.898-6.17s10.916 2.192 14.898 6.17l1.432 1.432 3.906-3.906-1.432-1.432c-8.214-8.211-8.214-21.576-.005-29.79l36.689-36.686c3.981-3.981 9.272-6.173 14.898-6.173s10.916 2.192 14.898 6.17l13.868 13.873c8.207 8.209 8.207 21.576-.007 29.788z"/><path d="M142.539 173.459l-7.093 7.093-11.002-10.999 7.093-7.093-1.432-1.432a5.478 5.478 0 00-3.89-1.611 5.475 5.475 0 00-3.893 1.611l-36.686 36.681a5.511 5.511 0 000 7.783l13.87 13.873c2.083 2.083 5.708 2.08 7.786.003l36.681-36.686a5.513 5.513 0 000-7.789l-1.434-1.434zM200.493 90.643a5.476 5.476 0 00-3.896-1.613 5.466 5.466 0 00-3.896 1.616l-36.686 36.684a5.517 5.517 0 00.003 7.786l1.434 1.432 10.88-10.883 11.002 11.002-10.88 10.883 1.434 1.434c2.083 2.077 5.703 2.08 7.786-.003l36.684-36.681a5.515 5.515 0 000-7.786l-13.865-13.871z"/></svg>
