<?xml version="1.0" standalone="no"?>
<!DOCTYPE svg PUBLIC "-//W3C//DTD SVG 20010904//EN"
 "http://www.w3.org/TR/2001/REC-SVG-20010904/DTD/svg10.dtd">
<svg version="1.0" xmlns="http://www.w3.org/2000/svg"
 width="700.000000pt" height="700.000000pt" viewBox="0 0 700.000000 700.000000"
 preserveAspectRatio="xMidYMid meet">
<metadata>
Created by potrace 1.14, written by Peter Selinger 2001-2017
</metadata>
<g transform="translate(0.000000,700.000000) scale(0.100000,-0.100000)"
fill="#000000" stroke="none">
<path d="M3349 5725 c-3 -2 -39 -7 -80 -10 -77 -7 -97 -9 -139 -19 -14 -3 -43
-8 -65 -11 -84 -12 -204 -47 -410 -120 -461 -163 -801 -345 -1184 -633 -69
-52 -128 -98 -131 -101 -3 -3 -41 -37 -85 -75 -135 -116 -464 -454 -576 -591
-154 -189 -197 -246 -297 -397 -111 -167 -162 -258 -162 -287 0 -12 54 -103
121 -202 138 -206 283 -402 387 -524 10 -11 44 -51 77 -90 73 -86 415 -430
506 -508 194 -169 430 -337 674 -480 83 -48 313 -161 406 -198 204 -82 451
-157 604 -184 185 -34 215 -36 507 -35 167 0 312 2 323 4 11 2 45 7 75 11 30
4 71 11 90 15 19 5 51 12 70 15 39 7 152 36 255 67 208 61 484 181 705 307
102 58 392 247 425 278 11 10 38 31 60 47 41 31 190 154 260 216 130 115 367
365 522 550 179 213 493 666 493 709 0 12 -11 46 -25 74 -50 107 -313 479
-445 632 -29 33 -75 87 -104 120 -53 62 -313 324 -382 385 -234 208 -459 374
-709 525 -100 60 -382 201 -495 248 -236 96 -577 207 -685 222 -22 3 -60 10
-85 15 -25 6 -74 13 -110 16 -86 8 -385 15 -391 9z m241 -229 c133 -11 294
-39 464 -82 160 -40 225 -62 316 -106 546 -267 931 -735 1088 -1324 50 -187
57 -249 57 -514 -1 -215 -4 -258 -24 -355 -118 -570 -421 -1022 -891 -1331
-95 -62 -291 -166 -299 -158 -2 2 16 25 41 51 141 152 251 390 293 638 14 84
13 329 -2 410 -19 104 -65 242 -109 330 -119 234 -343 431 -576 506 -148 47
-196 55 -373 64 -128 6 -238 14 -277 21 -16 2 -43 6 -60 9 -98 16 -248 78
-338 138 -53 36 -144 127 -183 184 -58 84 -128 274 -142 387 -7 60 -7 191 0
266 23 224 155 505 304 649 53 51 172 131 222 150 19 7 41 16 50 21 13 7 59
18 149 35 14 3 61 8 105 11 44 4 82 8 83 10 2 1 9 1 15 -1 7 -2 46 -6 87 -9z
m-983 -203 c-3 -5 -23 -38 -45 -75 -98 -161 -149 -297 -192 -508 -22 -111 -20
-341 5 -455 69 -325 257 -577 531 -714 170 -85 292 -111 589 -126 224 -11 304
-25 425 -75 100 -41 162 -82 244 -160 126 -120 204 -266 252 -470 14 -61 22
-309 10 -328 -3 -5 -8 -30 -11 -56 -9 -62 -35 -154 -70 -241 -109 -273 -336
-469 -675 -586 -89 -30 -104 -32 -240 -34 -80 0 -165 3 -190 7 -25 5 -61 11
-80 14 -19 3 -55 10 -80 16 -25 5 -52 11 -60 13 -250 52 -557 205 -791 393
-75 61 -266 252 -307 307 -12 17 -41 55 -63 85 -121 164 -234 398 -304 632
-32 108 -38 134 -50 237 -4 30 -10 64 -15 75 -13 36 -9 427 5 497 7 35 16 87
19 114 13 110 84 327 161 490 183 388 482 704 875 924 60 33 63 35 57 24z
m-932 -508 c-37 -50 -115 -179 -179 -298 -102 -190 -198 -513 -223 -752 -13
-126 -5 -546 11 -573 2 -4 7 -29 10 -57 14 -107 84 -353 133 -469 19 -45 127
-259 146 -291 35 -57 108 -165 136 -199 17 -21 31 -43 31 -48 0 -12 -142 97
-275 211 -152 131 -400 381 -521 527 -21 25 -49 58 -62 73 -57 64 -237 309
-325 439 l-96 144 56 86 c116 182 279 399 422 562 110 125 379 390 501 491
134 112 262 210 268 205 2 -2 -13 -25 -33 -51z m3702 -12 c48 -37 90 -69 93
-73 3 -3 43 -37 90 -75 146 -119 317 -284 460 -444 36 -40 70 -78 76 -85 82
-89 307 -392 396 -535 l46 -75 -35 -55 c-271 -426 -672 -885 -1027 -1176 -95
-77 -212 -165 -221 -165 -4 0 6 15 23 34 76 87 206 307 280 474 56 126 132
373 147 477 2 11 6 40 9 65 3 25 9 62 12 84 8 47 8 497 1 523 -3 10 -9 43 -12
73 -34 298 -195 694 -390 959 -25 34 -43 61 -41 61 3 0 44 -30 93 -67z"/>
</g>
</svg>
