<svg xmlns="http://www.w3.org/2000/svg" viewBox="0 0 500 500"><path d="M246.4 63.5c-3.1 1.3-4.9 4-17.4 25.5-19.6 33.8-29.6 51.1-31.3 54-1 1.9-4.3 7.5-7.2 12.5-7.4 12.5-22.4 38.3-24.8 42.5-1.8 3.3-54.2 93.6-58.5 101-7 11.9-11.2 20.1-11.2 21.8 0 3.6 1.8 7 4.7 8.9 2.5 1.7 6 1.8 44.3 1.9 31.8.1 42.2-.1 44.6-1.1 3-1.2 4.7-3.6 12.4-17 24.6-43.1 39.8-68.6 42.2-70.9 2.6-2.4 3.7-2.7 7-2.3 6.1.8 4.3-1.6 26.8 37.2 27.5 47.5 33 57.5 33 59.4 0 3.4-2.6 7.6-5.5 8.9-1.9.9-15.6 1.2-51.1 1.2-40.6 0-49 .2-51.3 1.5-2 1-5 5.2-9.7 13.2-3.7 6.5-8.6 14.9-10.9 18.8-15.7 26.4-24.5 42.6-24.5 44.8 0 3.9 1.8 7.2 5 9 2.6 1.6 14.4 1.7 149.5 1.7h146.7l2.9-3.1c5-5.4 4.4-7.6-9.3-31.3-6.7-11.6-16.1-27.9-20.8-36.1-12.2-21.1-132.4-228.7-143.3-247.5-4.9-8.5-9.9-17.1-11-19-13-22.9-19.4-33.4-21.1-34.5-3.4-2.1-6.9-2.5-10.2-1z"/></svg>
