<?xml version="1.0" encoding="UTF-8"?>
<svg width="512px" height="512px" viewBox="0 0 512 512" version="1.1" xmlns="http://www.w3.org/2000/svg" xmlns:xlink="http://www.w3.org/1999/xlink">
    <!-- Generator: Sketch 58 (84663) - https://sketch.com -->
    <title>beatport</title>
    <desc>Created with Sketch.</desc>
    <g id="beatport" stroke="none" stroke-width="1" fill="none" fill-rule="evenodd">
        <g id="Beatport-logo" transform="translate(1.000000, 89.000000)" fill="#000000" fill-rule="nonzero">
            <path d="M24.9627753,102.407085 L25.2515355,102.489256 L51.2606102,110.751469 C57.3209695,112.558807 60.6036391,119.013634 58.8360477,125.21027 C53.0282015,144.316607 49.9979988,164.455709 49.9979988,184.852955 C49.9979988,221.000053 59.5935869,256.372577 77.5221979,287.097566 C80.5018518,292.42926 78.8423501,299.508596 73.7441321,302.934536 L73.481943,303.105561 L50.2505118,317.306219 C44.6951786,320.662704 37.8772802,318.855366 34.5946106,313.433303 C12.1207186,274.704294 0,230.295031 0,184.852955 C0,159.291838 3.78774186,134.247056 11.1106664,109.976895 C12.8502007,104.132711 18.9919113,100.789125 24.9627753,102.407085 Z M256.499977,0 C358.703833,0 442,83.7959066 442,186.61294 C442,234.165781 424.11434,279.405306 391.664617,314.363076 C387.394566,318.911429 380.161435,319.236921 375.54825,315.09536 L375.312002,314.877157 L355.382237,295.85603 C350.783056,291.486297 350.527549,284.28912 354.871222,279.662346 C378.378091,254.472157 391.40911,221.57071 391.40911,186.869981 C391.40911,112.07058 330.85329,51.1514999 256.499977,51.1514999 C182.14671,51.1514999 121.59089,112.07058 121.59089,186.869981 C121.59089,221.31367 134.621909,254.472157 158.128778,279.662346 C162.39883,284.2107 162.224284,291.243063 157.847875,295.631429 L157.617763,295.85603 L137.687998,314.877157 C132.83331,319.24689 125.679055,318.989849 121.335383,314.363076 C88.8856597,279.662346 71,234.165781 71,186.61294 C71,83.7959066 154.29612,0 256.499977,0 Z M485.802278,104.483067 C491.597747,102.698591 497.897166,106.012664 499.913012,111.875986 C507.22033,135.839127 511,160.56709 511,185.804856 C511,230.672084 499.157087,274.519565 476.479114,312.503723 C473.203441,317.857195 466.148097,319.641671 460.856578,316.327645 L460.856578,316.327645 L437.674655,302.306628 C432.131161,299.247527 430.367337,292.109533 433.643011,286.75606 C451.533414,256.164775 461.108553,221.494689 461.108553,185.804856 C461.108553,165.665637 458.084808,146.036222 452.289338,126.916657 C450.525514,120.79841 453.801188,114.425237 459.848632,112.640762 L459.848632,112.640762 Z" id="path6814-2"></path>
        </g>
    </g>
</svg>