<svg xmlns="http://www.w3.org/2000/svg" viewBox="0 0 48 48"><path fill-rule="evenodd" d="M0 24c0 13.255 10.745 24 24 24s24-10.745 24-24S37.255 0 24 0 0 10.745 0 24zm26.095-5.18c.894.896 1.788 1.793 2.695 2.679.461-.45.916-.907 1.37-1.364.319-.32.637-.64.958-.959.281-.283.564-.564.847-.845.51-.506 1.018-1.01 1.514-1.531h.06c.189.227.399.433.609.638.12.118.24.236.356.357l1.212 1.212 2.39 2.39c.017.019.036.037.057.056.051.047.105.097.121.166-.78.759-1.547 1.53-2.315 2.303-.82.824-1.64 1.649-2.475 2.458l-4.567-4.567a1.164 1.164 0 00-.07-.07 1.118 1.118 0 01-.07-.068c-.02.022-.043.042-.065.063l-.047.045c-.765.76-1.528 1.524-2.29 2.287l-2.315 2.31c-.712-.703-1.42-1.412-2.127-2.121-.883-.886-1.767-1.772-2.662-2.647.823-.858 1.669-1.7 2.514-2.542.757-.753 1.513-1.506 2.253-2.27h.06c.044.067.089.126.148.186.615.609 1.227 1.222 1.839 1.835zm-14.376.632c-.588.588-1.177 1.175-1.763 1.766-.037.04-.08.079-.121.117-.09.081-.18.163-.235.27.798.794 1.595 1.59 2.391 2.387.797.797 1.593 1.593 2.391 2.388.798-.794 1.593-1.591 2.388-2.388l.001-.001c.79-.792 1.58-1.584 2.371-2.372v-.059l-3.282-3.282a30.62 30.62 0 00-.529-.528c-.315-.31-.63-.617-.919-.95h-.06c-.868.891-1.75 1.771-2.633 2.652zm7.584 11.789l.022-.052 1.568-1.566c1.047-1.046 2.095-2.092 3.14-3.142l.067.03c1.575 1.581 3.149 3.163 4.738 4.73-.034.077-.093.133-.153.189-.032.03-.064.06-.092.093-.569.565-1.138 1.134-1.707 1.703-.575.575-1.15 1.15-1.724 1.72-.149.143-.295.293-.441.443-.22.224-.438.449-.665.649a21.9 21.9 0 01-.918-.897c-.215-.219-.43-.437-.65-.648l-.788-.79c-.805-.805-1.608-1.61-2.42-2.41.008-.015.015-.034.023-.052z" clip-rule="evenodd"/></svg>
