<svg xmlns="http://www.w3.org/2000/svg" viewBox="0 0 194.22667 194.90668">
  <path fill="#000" fill-rule="evenodd" d="M186.99332866 88.86080598c.54399998-3.70986657.75199998-7.34106648.82666664-12.88746634C188.4079953 33.18934071 151.2386629.2920082 109.79266392.0560082c-10.14159974-.06666666-15.21613295-.06666666-25.36239936 0-41.4589323.236-78.5094247 32.72666585-78.02297139 75.91733144.05937334 5.43226653.23906666 9.25786644.75311998 12.99159968-5.32134653 7.7771998-8.05624646 18.1338662-6.89739182 29.17199927l.34114532 3.27853325c2.28020661 21.70573279 18.72129953 37.77506572 36.71556575 35.88333243l.95426664-.1c12.28386636 23.0370661 34.02186582 37.61046987 58.82333187 37.70369906v.00416667h.0568c2.01519994 0 3.64693324-1.6317733 3.64693324-3.6505199v-12.98014635c0-2.00946662-1.6317333-3.63599991-3.63746658-3.64533324v-.02666667c-25.2057327 0-47.92453213-30.8202659-47.92453213-61.83426512 0-30.65159923 22.71879943-61.98973178 47.8207988-61.98973178v.00533333h.05266667c2.01346661 0 3.64626657-1.63066663 3.64626657-3.65066658V34.31467401c0-1.99599995-1.6077333-3.61733324-3.5951999-3.64666657v-.032c-27.05373267.072-50.46253208 17.36799957-61.9505318 44.08893223l-6.5026665.68533332c-.33799999.03493333-.65933331.11773333-.9937333.16613333C26.216666 43.16134046 56.0811986 19.76800772 88.0827978 19.58934105c8.1827998-.05066667 12.2739997-.05066667 20.45626615 0 31.9635992.17866666 59.51159852 23.64133274 58.48093187 56.07093193-.49999998-.08066666-.99199997-.19626666-1.5013333-.25l-10.41599973-1.0973333v.00986667c-.03333333-.00573334-.06666667-.01453334-.09866667-.024-2.26133327-.23586666-4.29199989 1.4005333-4.52799988 3.66146657l-7.74266648 73.71306483c-.23733332 2.25733327 1.39999997 4.28639989 3.66133325 4.51879988.03733333.0052.06666666-.00426666.104 0v.01293334l10.41199973 1.0937333c17.99199955 1.89173329 34.42933248-14.17759964 36.70799909-35.88333243l.34666665-3.27853325c1.16666664-11.08959973-1.60399996-21.48866613-6.97199982-29.2761326"/>
</svg>