<svg xmlns="http://www.w3.org/2000/svg" viewBox="0 0 577 577">
  <path d="M495.966 374.48c-18.901 18.352-43.41 38.558-73.185 55.939 37.627-35.642 61.135-86.048 61.135-141.846 0-59.497-26.732-112.86-68.806-148.733 69.194 38.867 118.4 100.212 149.175 148.876-5.956 10.233-28.949 47.533-68.319 85.763zm-414.678.244c-39.46-38.251-62.59-75.744-68.573-86.01 49.936-79.002 104.43-123.618 149.072-148.787-42.015 35.872-68.703 89.197-68.703 148.646 0 55.798 23.51 106.205 61.136 141.848-29.663-17.314-54.087-37.427-72.932-55.697zm22.753-86.15c0-85.077 57.894-156.873 136.348-178.092-.468.29-.936.575-1.405.873-22.402 14.277-49.106 42.51-49.105 96.06.021.922.628 22.84 12.9 45 11.44 20.662 35.44 45.29 84.808 45.29 29.113 0 51.584 8.089 66.79 24.04 23.204 24.344 21.252 59.355 21.216 59.77-.425 4.86-.427 23.28-11.864 46.155-11.303 22.61-28.395 36.846-50.971 42.536a299.573 299.573 0 01-24.258 2.815c-24.833-1.85-47.968-6.688-69.373-13.533-67.428-27.472-115.086-93.727-115.086-170.915zm253.82 170.919a315.39 315.39 0 01-5.696 1.761c9.745-8.85 16.594-19.139 21.366-28.683 12.485-24.973 13.548-49.607 13.583-50.571.082-1.616 1.715-39.905-24.719-67.725-17.357-18.266-42.527-27.528-74.808-27.528-83.83 0-86.672-76.326-86.75-79.45 0-38.748 14.7-67.844 43.693-86.48 20.602-13.244 41.593-16.357 44.276-16.708 101.57.166 184.152 82.85 184.152 184.464 0 77.193-47.663 143.45-115.097 170.92zM575.314 285.67C509.441 180.173 435.13 133.455 384.39 112.841c-53.08-21.566-91.39-19.984-95.891-19.706-4.522-.277-42.825-1.851-95.887 19.705-50.74 20.615-125.053 67.333-190.924 172.831L0 288.371l1.51 2.801c.986 1.83 24.686 45.333 71.89 91.17 32.1 31.168 79.908 67.53 142.041 87.477C238.023 478.956 262.681 484 288.5 484c25.818 0 50.476-5.044 73.059-14.18 62.133-19.947 109.941-56.31 142.04-87.478 47.204-45.837 70.906-89.34 71.89-91.17L577 288.37l-1.686-2.699z"/>
</svg>
