<svg xmlns="http://www.w3.org/2000/svg" fill="none" stroke="currentColor" viewBox="0 0 1500 1500"><path d="M723 272.7c-45.6 2.6-97.4 12.1-144 26.5-170 52.2-342.8 183.3-468.2 355.2-14.8 20.3-34.4 49.9-49.1 74.4L48.8 750l12.9 21.2c119.4 198.1 308.6 359.1 497.8 423.4 48 16.4 88.6 25.3 141.5 31.1 22.1 2.4 75.3 2.4 98-.1 83-8.9 157.6-31.4 236.3-71.3 157.6-80 304.5-219.5 403-383.1l12.9-21.2-12.3-20.3c-14.5-24-27.7-44.3-40.7-62.7-122.2-172.5-290.5-305-460.3-362.4-46-15.6-88.8-24.8-138.9-30.1-14.3-1.5-61.5-2.6-76-1.8zm56.1 96.3c134.3 10 252.6 89.1 312.5 209 20 40.1 32.1 80.1 38.1 126.5 2.5 19.9 2.6 71 0 91-9.7 75.7-38.4 142.4-86.1 200.2-8.5 10.2-39.3 41.9-40.1 41.1-.2-.2.7-4.6 2-9.9 11.6-48.1 9.5-97.8-6.2-144.9C964.9 778.4 869.4 706.8 760 702.5c-32.6-1.2-42.7-2.6-60.2-8.1-62.5-19.8-108.3-75.2-115.9-140.4-1.6-14.1-.6-38.4 2.1-51.5 12.5-59.3 54.6-107.1 111.1-125.9 10.2-3.4 28.3-7.3 36.4-7.8 12.2-.9 32.9-.8 45.6.2zM495.5 469c-5.9 21.8-9 50.4-8.1 74.5 2.5 68.7 28.6 128.6 77 177.1 42.5 42.4 94.7 68 153.9 75.4 4.8.6 18.6 1.5 30.5 2 11.9.5 25.6 1.6 30.5 2.5 72.3 13 128.2 72.5 136.8 145.5 1.6 14.1.6 38.5-2.1 51.4-15.2 72.2-72.3 124.8-144.5 133.4-13.8 1.7-52 .7-69.4-1.7-86.6-12.1-160.7-48.6-220.6-108.6-60.8-60.7-97.9-137.3-109.2-225-2.6-20-2.5-71.1 0-91 10.6-81.7 41.8-150.3 96.5-211.8 8.5-9.6 29.3-30 29.9-29.3.1.1-.4 2.6-1.2 5.6zM1233 616.5c37 39.4 67.2 76.8 94.7 117.2 5.7 8.3 10.3 15.7 10.3 16.4 0 .7-3.7 6.7-8.2 13.3-23.9 35.3-51.6 70.5-82.6 104.8-14.7 16.3-48.3 51-48.8 50.5-.2-.2 1.7-6.4 4.1-13.8 11.6-34.4 18.8-67.1 23.1-105.9 1.8-16.1 2.6-65.5 1.4-82.5-3.4-45.2-12-85.3-28.7-134.4-.8-2.3 14.3 12.7 34.7 34.4zm-937-16.7c-12.2 37.2-20 77-23 116.7-1.2 17.2-.4 66.4 1.4 82.5 4.4 39 11.5 71.5 23.1 105.9 2.4 7.4 4.3 13.6 4.1 13.8-.5.5-34-34.1-48.8-50.5-22.6-25-45.9-53.5-65-79.7C176 772.3 162 751.4 162 750c0-1.3 11.3-18.2 23.3-35 19.4-26.9 42.8-55.8 67.5-83.2 16.1-17.8 47-49.8 48.2-49.8.4 0-1.8 8-5 17.8z"/></svg>
