<svg xmlns="http://www.w3.org/2000/svg" viewBox="0 0 511 353">
  <style>
    path{
      fill: #000;
    }
    path.outline {
      fill: #FFF;
    }
    path.fill {
      fill: #000;
    }
    @media (prefers-color-scheme: dark) {
      path.fill {
        fill: #FFF;
      }
      path.outline {
        fill: #000;
      }
    }
  </style>
  <path class="outline" d="M238.398.28c-.181.18-2.356.538-4.834.794-7.877.814-14.308 1.897-23.784 4.005-4.11.914-6.41 1.514-11.747 3.063-.913.266-2.464.699-3.447.962-2.832.758-6.815 2.12-7.783 2.66-.487.271-1.335.493-1.884.493-.55 0-1.14.23-1.314.511-.174.281-.765.51-1.314.51s-1.397.204-1.884.452c-.939.477-3.185 1.433-5.101 2.171l-2.299.884c-1.705.657-3.433 1.38-6 2.513-1.265.558-3.793 1.64-5.618 2.404-3.549 1.487-14.59 7.06-18.387 9.281-1.264.74-3.562 2.037-5.107 2.882-1.545.845-3.769 2.19-4.944 2.988-1.174.799-2.38 1.451-2.68 1.451-.3 0-.547.174-.547.386 0 .213-.666.68-1.479 1.04-2.569 1.138-15.837 10.223-23.935 16.388-4.287 3.264-8.472 6.423-9.3 7.019-13.116 9.442-46.058 41.702-55.429 54.278-.562.755-2.4 3.057-4.086 5.116-8.963 10.95-19.687 25.96-26.14 36.586-.332.548-2.573 4.165-4.98 8.039-5.478 8.82-5.515 9.183-1.585 15.523 12.61 20.349 20.628 31.972 30.902 44.796 2.677 3.343 5.435 6.79 6.13 7.66 3.827 4.81 18.21 20.542 24.307 26.59 6.716 6.661 20.129 18.787 26.524 23.98a568.034 568.034 0 014.597 3.76c7.972 6.7 30.476 22.217 39.58 27.29a539.385 539.385 0 018.045 4.58c3.422 1.983 17.149 8.805 21.074 10.472 9.539 4.051 11.052 4.666 12.25 4.99.703.19 1.794.56 2.426.823.632.263 1.782.735 2.554 1.05.773.312 1.804.772 2.292 1.02.488.249 1.335.452 1.884.452.55 0 1.14.23 1.314.51.174.281.863.511 1.532.511.67 0 1.359.23 1.533.51.173.282.764.512 1.314.512.549 0 1.396.206 1.884.46.807.42 2.35.887 7.144 2.162.913.243 2.423.672 3.355.953.934.28 2.184.51 2.78.51.595 0 1.209.206 1.365.457.154.252 1.145.581 2.2.733 1.056.152 3.068.533 4.472.847 4.619 1.033 8.575 1.683 19.152 3.15 5.643.781 39.112.773 44.689-.012 3.876-.545 6.704-.984 13.406-2.08 1.615-.264 4.029-.724 5.363-1.021l4.852-1.085c1.334-.3 3.289-.668 4.345-.82 1.054-.152 2.045-.481 2.2-.733.155-.252.944-.457 1.754-.457s1.614-.23 1.788-.51c.173-.282.978-.512 1.787-.512.81 0 1.614-.23 1.788-.51.173-.281.978-.511 1.787-.511.81 0 1.614-.23 1.788-.51.173-.282.863-.511 1.532-.511s1.358-.23 1.532-.511c.174-.281.863-.51 1.532-.51.67 0 1.359-.23 1.532-.512.174-.28.765-.51 1.314-.51.55 0 1.397-.203 1.885-.451 1.554-.79 3.353-1.495 6.76-2.648 1.826-.618 4.24-1.539 5.363-2.044a224.088 224.088 0 015.363-2.288c6.327-2.605 20.588-9.828 27.068-13.71 1.264-.757 2.7-1.507 3.192-1.668.492-.161.894-.496.894-.745 0-.247.27-.45.601-.45 1.546 0 19.365-11.817 30.808-20.432 7.913-5.956 7.241-5.426 14.187-11.191 6.953-5.772 7.72-6.44 12.363-10.767a421.975 421.975 0 017.602-6.895c3.746-3.288 19.844-20.312 25.649-27.126 12.864-15.1 25.638-32.372 33.765-45.652 1.117-1.826 3.562-5.8 5.433-8.83 5.348-8.666 5.187-10.115-2.477-22.324-.618-.983-2.336-3.741-3.818-6.129-4.834-7.789-17.261-25.438-19.635-27.887-.301-.31-1.465-1.752-2.589-3.205-1.804-2.331-3.6-4.52-12.257-14.933-4.02-4.835-20.3-21.947-23.865-25.087-2-1.76-5.376-4.827-7.505-6.818-9.062-8.477-25.55-21.784-35.498-28.65-5.418-3.739-17.136-11.342-19.856-12.882-1.038-.587-2.749-1.553-3.802-2.145-1.053-.591-2.145-1.256-2.426-1.477-2.878-2.265-22.866-12.107-32.048-15.782-.632-.252-2.238-.942-3.57-1.532-1.33-.59-2.754-1.072-3.161-1.072-.407 0-.884-.23-1.057-.511-.174-.28-.765-.51-1.314-.51-.55 0-1.397-.204-1.885-.451a41.192 41.192 0 00-2.42-1.082 41.191 41.191 0 01-2.419-1.081c-.488-.248-1.335-.451-1.884-.451-.55 0-1.14-.23-1.314-.51-.174-.282-.978-.512-1.788-.512s-1.614-.23-1.787-.51c-.174-.281-.863-.511-1.533-.511-.669 0-1.341-.203-1.495-.452-.154-.249-.914-.578-1.69-.734-1.452-.291-4.653-1.062-7.795-1.878-3.954-1.027-6.518-1.615-9.193-2.113a1172.89 1172.89 0 01-5.363-1.012c-2.815-.541-7.173-1.228-13.023-2.054-4.24-.6-39.937-1.19-40.457-.67m29.221 6.866c84.495 5.674 175.133 68.3 231.526 159.972 6.01 9.768 6.028 8.365-.246 18.405-58.685 93.895-147.795 154.791-233.825 159.794-86.801 5.048-188.18-58.287-249.856-156.094-9.144-14.5-8.815-12.045-2.9-21.593C67.079 79.234 151.757 18.099 233.146 8.203c10.404-1.265 12.58-1.43 19.663-1.49 4.073-.035 10.738.16 14.811.433M249.744 40.86c-22.908 2.22-43.29 18.856-50.363 41.111-12.244 38.516 16.752 77.375 57.737 77.375 57.124 0 103.36 57.626 89.944 112.103-1.766 7.17-.923 7.038 6.666-1.045 17.223-18.343 28.2-38.326 33.86-61.65 5.934-24.453 4.724-52.874-3.266-76.676-18.902-56.308-78.43-96.656-134.578-91.218m22.471 7.654c.984.258 2.822.593 4.086.747 4.161.501 8.731 1.461 13.534 2.84 1.124.323 2.678.71 3.454.86.776.15 1.536.475 1.69.724.154.249.637.452 1.072.452 3.22 0 20.688 7.927 26.93 12.221 1.253.862 2.467 1.57 2.697 1.573.495.007 8.782 6.189 13.767 10.27 17.821 14.595 35.18 41.58 40.044 62.248.232.983.67 2.707.973 3.83 1.369 5.062 1.632 6.423 3.17 16.343.305 1.967.556 8.976.556 15.578 0 6.6-.25 13.61-.556 15.577-1.234 7.96-1.557 9.802-2.11 12.002a130.91 130.91 0 00-1.003 4.34c-2.862 13.797-12.377 33.46-22.461 46.418l-2.34 3.005-.344-9.39c-.383-10.449-.798-14.768-1.49-15.492-.255-.267-.464-1.119-.464-1.891 0-.774-.201-1.934-.448-2.58-.245-.645-.713-2.322-1.04-3.726-1.769-7.619-6.835-18.594-12.733-27.58-11.792-17.969-32.42-33.554-52.428-39.613-1.124-.341-2.502-.8-3.064-1.02-.562-.222-1.711-.545-2.554-.72a92.109 92.109 0 01-3.575-.842c-3.267-.843-7.723-1.46-14.3-1.98-20.008-1.579-20.636-1.696-29.622-5.544-1.686-.722-3.18-1.437-3.32-1.589-.14-.152-.892-.604-1.67-1.006-.779-.4-2.525-1.665-3.883-2.808a526 526 0 00-3.711-3.1c-1.401-1.15-6.668-7.192-8.77-10.06-1.701-2.32-5.131-9.136-5.989-11.9-.349-1.124-.813-2.503-1.034-3.065-.221-.562-.572-1.711-.779-2.554-.586-2.377-.825-19.69-.292-21.162.26-.72.757-2.344 1.101-3.608 4.402-16.102 16.98-29.543 33.454-35.75a159.31 159.31 0 002.45-.958c.786-.317 2.061-.575 2.835-.575.772 0 1.626-.22 1.896-.49.932-.932 22.735-.952 26.271-.025M159.537 80.31c-18.134 18.805-29.844 39.972-35.646 64.44-4.742 19.996-4.554 44.78.49 64.741 12.174 48.161 49.214 85.527 97.018 97.87 37.354 9.645 64.96 3.18 81.764-19.144 27.87-37.032 3.97-91.018-41.908-94.66-3.382-.268-9.136-.72-12.788-1.005-29.115-2.263-55.129-18-71.376-43.183-6.498-10.072-10.152-19.722-13.242-34.968-1.182-5.832-.882-25.143.493-31.739 1.847-8.87 1.597-8.991-4.805-2.352m-2.772 33.325c.266.562.595 2.056.73 3.32.135 1.264.504 3.447.82 4.851.317 1.405.704 3.304.86 4.22.155.915.489 1.79.738 1.944.25.154.454.845.454 1.534 0 .69.221 1.653.492 2.14.27.488 1.065 2.54 1.764 4.558 7.541 21.737 27.563 43.242 50.349 54.081a404.27 404.27 0 014.772 2.308c1.08.534 2.388.972 2.906.972.519 0 1.086.23 1.26.51.173.282.862.512 1.531.512.67 0 1.359.23 1.533.51.173.281.863.511 1.532.511s1.358.23 1.532.51c.174.282 1.093.511 2.043.511.95 0 1.854.206 2.01.458.154.251 1.145.588 2.2.75 1.055.162 3.412.547 5.238.854 1.826.308 6.308.765 9.96 1.014 14.611 1 17.767 1.474 23.748 3.566 9.67 3.384 17.986 9.454 24.043 17.553 5.06 6.762 7.332 11.571 10.166 21.515 1.063 3.728.194 23.258-1.068 24.039-.25.154-.455.73-.455 1.279 0 .549-.203 1.397-.45 1.885a34.596 34.596 0 00-.97 2.164c-4.377 10.782-12.388 20.139-21.962 25.648-2.334 1.342-4.37 2.442-4.526 2.442-.156 0-1.006.329-1.893.731-2.276 1.036-6.32 2.381-9.014 3.002-3.277.756-26.036.696-30.132-.078a385.231 385.231 0 00-5.874-1.06c-42.819-7.248-82.273-41.41-96.556-83.604-1.835-5.42-2.344-7.114-3.325-11.05-.261-1.053-.724-2.891-1.025-4.085-.527-2.079-.854-3.94-2.084-11.874-.305-1.967-.555-8.976-.555-15.577 0-6.602.25-13.611.555-15.578 1.235-7.96 1.558-9.802 2.11-12.002a130.91 130.91 0 001.003-4.34c2.726-13.135 11.052-30.71 20.97-44.26l3.83-5.232.127 8.913c.07 4.902.346 9.373.613 9.935m-67.42 9.828c-18.146 18.875-41.848 48.768-41.848 52.779 0 3.913 22.808 32.542 42.243 53.026 6.649 7.006 7.179 7.063 5.206.556-10.93-36.055-11.242-69.832-.955-104.025 3.127-10.394 3.109-10.403-4.646-2.336m326.384-5.057c0 .519.47 2.3 1.044 3.958 11.182 32.286 11.287 71.094.289 106.694-2.265 7.334-1.84 7.352 4.968.21 18.824-19.75 42.217-49.157 42.217-53.07 0-4.09-25.265-35.737-43.116-54.008-4.815-4.928-5.402-5.34-5.402-3.784M82.003 145.488c-3.511 20.281-3.474 41.276.11 62.81l.454 2.733-1.575-1.723c-2.162-2.363-6.222-7.214-9.12-10.892a9514.643 9514.643 0 00-5.237-6.64c-4.345-5.501-10.966-14.911-10.966-15.584 0-1.493 17.864-25.066 24.363-32.153 2.127-2.318 2.567-1.995 1.971 1.45m353.48 2.999c5.468 6.523 6.918 8.396 15.095 19.5 3.016 4.095 5.486 7.74 5.49 8.1.02 1.686-18.72 26.3-25.163 33.053l-1.462 1.532.302-2.553c.166-1.405.532-4.163.813-6.129 2.35-16.48 2.335-37.091-.04-51.838-1.586-9.848-1.826-9.768 4.965-1.665"/>
  <path class="fill" d="M241.572 7.21c-2.107.239-5.899.686-8.427.993C151.756 18.1 67.077 79.233 12.32 167.63c-5.916 9.548-6.245 7.092 2.9 21.593 61.675 97.807 163.054 161.142 249.855 156.094 86.03-5.003 175.14-65.9 233.825-159.794 6.274-10.04 6.256-8.637.246-18.405-51.139-83.13-132.166-143.886-209.82-157.33-16.5-2.856-36.004-3.91-47.753-2.578m23.749 33.654c58.692 4.168 107.33 44.515 121.844 101.077 5.37 20.93 5.529 45.778.423 66.813-5.66 23.324-16.637 43.307-33.86 61.65-7.59 8.083-8.432 8.216-6.666 1.045 13.415-54.477-32.82-112.103-89.944-112.103-49.084 0-77.586-54.156-49.417-93.897 12.937-18.25 32.04-26.402 57.62-24.585m-99.847 35.543c0 .45-.51 3.266-1.132 6.256-1.375 6.596-1.675 25.907-.493 31.739 3.09 15.246 6.744 24.896 13.242 34.968 16.247 25.182 42.26 40.92 71.376 43.183 3.652.285 9.406.737 12.788 1.005 45.877 3.642 69.778 57.628 41.908 94.66-16.803 22.325-44.41 28.79-81.764 19.144-74.94-19.35-117.94-97.623-94.802-172.57 6.025-19.515 17.46-38.429 32.94-54.48 4.432-4.597 5.937-5.587 5.937-3.905m-69.458 41.86c0 .44-.912 3.83-2.025 7.533-10.287 34.193-9.976 67.97.955 104.025 1.973 6.507 1.443 6.45-5.206-.556-19.435-20.484-42.243-49.113-42.243-53.026 0-4.01 23.702-33.904 41.848-52.78 5.76-5.992 6.671-6.701 6.671-5.196m325.115 3.924c17.85 18.27 43.116 49.919 43.116 54.009 0 3.912-23.393 33.32-42.217 53.069-6.808 7.142-7.233 7.124-4.968-.21 10.998-35.6 10.893-74.408-.289-106.694-2.154-6.218-1.57-6.242 4.358-.174"/>
</svg>
