<?xml version="1.0" encoding="UTF-8"?>
<svg width="1024px" height="1024px" viewBox="0 0 1024 1024" version="1.1" xmlns="http://www.w3.org/2000/svg" xmlns:xlink="http://www.w3.org/1999/xlink">
    <!-- Generator: Sketch 58 (84663) - https://sketch.com -->
    <title>maskable_icon</title>
    <desc>Created with Sketch.</desc>
    <g id="maskable_icon" stroke="none" stroke-width="1" fill="none" fill-rule="evenodd">
        <rect fill="#151515" x="0" y="0" width="1024" height="1024"></rect>
        <path d="M530.823348,233.525056 C531.431291,233.86306 534.673653,234.268664 537.983566,234.539067 C548.251048,235.147473 555.478815,236.026282 556.897349,236.76989 C557.64039,237.175494 560.409909,237.648699 563.111878,237.919102 C565.813847,238.189505 568.98866,238.73031 570.204546,239.135914 C572.298572,239.744321 576.283977,240.62313 580.33693,241.299137 C581.350169,241.501939 582.768703,241.975144 583.511744,242.313147 C584.254786,242.718752 585.470672,243.056755 586.213713,243.056755 C587.024304,243.056755 588.172641,243.327158 588.848133,243.665161 C589.424079,243.985375 591.151917,244.548278 592.768076,245.008995 L593.304294,245.160557 C594.920453,245.621275 596.648291,246.184177 597.224237,246.504391 C597.899729,246.842394 598.980517,247.112797 599.656009,247.112797 C600.331501,247.112797 601.142092,247.315599 601.34474,247.586002 C601.817584,247.991606 608.234761,250.425232 612.963207,251.844846 C614.111543,252.18285 615.597626,252.791256 616.340668,253.196861 C617.083709,253.534864 619.515482,254.413673 621.744606,255.157281 C625.662461,256.374094 631.944539,258.604917 639.645151,261.444146 C645.589483,263.607369 648.629198,264.891782 654.57353,267.663411 C656.667556,268.609821 658.694033,269.421029 659.099328,269.421029 C659.504623,269.421029 660.65296,269.894234 661.733748,270.43504 C662.746986,270.975845 667.002588,272.936266 671.055541,274.896686 C678.958801,278.547124 693.211687,285.712798 696.386501,287.673219 L696.536936,287.763082 C697.497409,288.322999 701.691271,290.617445 706.181139,293.148876 C711.044683,295.852904 716.651269,299.097737 718.677746,300.382151 C720.704222,301.666564 723.473741,303.424182 724.757176,304.235391 C735.700151,310.995461 758.396691,326.814025 768.664173,334.858509 C789.739532,351.420681 803.519574,363.724009 823.716792,383.936619 C843.914011,404.149229 861.274162,423.618231 875.864795,442.478827 C881.336282,449.576901 883.565407,452.41613 884.17335,453.092137 C884.578645,453.565342 885.794531,455.25536 886.875319,456.877777 C887.956106,458.500193 889.307091,460.257812 889.915034,460.731017 C890.455428,461.204221 890.928272,461.880228 890.928272,462.285833 C890.928272,462.691437 891.468666,463.637847 892.211708,464.381454 C895.589169,468.167094 915.651289,499.398618 920.514834,508.457112 C922.743958,512.648356 922.473761,515.89319 919.636694,519.881631 C918.413419,521.685725 913.140061,529.508163 907.735343,537.61271 L906.527993,539.424465 C893.146204,559.512374 892.573096,560.365664 888.226303,566.188112 C886.132277,568.959741 883.903153,572.001773 883.29521,572.948182 C880.390593,577.071825 866.475453,594.986011 861.747007,600.732071 C860.396022,602.354488 857.221209,606.140127 854.721887,609.114558 C844.184208,621.82349 827.702197,639.467273 812.098325,654.745032 C801.830843,664.885137 798.048086,668.400374 789.87463,675.70125 C777.378023,686.922966 760.152971,700.71351 747.048421,709.974806 C742.792819,713.016838 738.40212,716.12647 737.253783,716.937678 C718.002253,730.59302 691.725604,745.600376 665.989349,757.633301 C662.814536,759.120516 659.369525,760.742933 658.356287,761.283739 C657.275499,761.824545 656.059613,762.230149 655.654318,762.230149 C655.181473,762.230149 653.965587,762.703354 652.81725,763.31176 C650.790773,764.393371 641.941825,767.908608 635.119353,770.409834 C626.337953,773.587067 624.108829,774.330674 619.380383,775.750289 C616.610865,776.629098 613.436051,777.71071 612.287714,778.183915 C611.206927,778.589519 608.572507,779.400727 606.54603,779.806331 C604.519553,780.279536 602.560626,780.887943 602.15533,781.158345 C601.817584,781.361148 599.385812,781.969554 596.751392,782.510359 C594.184522,782.983564 591.75275,783.591971 591.347454,783.862374 C590.671962,784.335578 588.375288,784.808783 582.566055,785.619992 C581.079972,785.890395 579.593889,786.295999 579.188594,786.634002 C578.850847,786.972006 577.297215,787.242409 575.743583,787.242409 C574.122402,787.242409 572.703868,787.512811 572.50122,787.850815 C572.298572,788.121218 570.204546,788.594423 567.907873,788.864825 C558.021784,790.044198 555.560082,790.398009 553.818854,791.095723 L553.654986,791.163249 C550.953017,792.312461 471.717775,792.244861 469.758847,791.163249 C468.542961,790.487242 464.017163,789.743635 455.57351,788.864825 C453.74968,788.662023 451.588105,788.256419 450.845064,787.918416 C450.102022,787.580412 448.413292,787.174808 447.129856,786.972006 C443.819944,786.498801 438.551105,785.41719 435.308742,784.605981 C424.568415,781.969554 421.258503,781.090745 417.070451,779.873932 C414.50358,779.130324 411.463865,778.183915 410.315528,777.845911 C409.23474,777.440307 403.560605,775.547487 397.818921,773.654667 C392.077237,771.761848 387.078594,769.936629 386.673299,769.598625 C386.335553,769.260622 385.524962,768.990219 384.84947,768.990219 C384.173978,768.990219 382.958091,768.652215 382.079951,768.179011 C379.107786,766.624194 378.229646,766.286191 377.554153,766.286191 C377.216407,766.286191 374.919734,765.407382 372.62306,764.25817 C370.258837,763.176559 367.827065,762.230149 367.286671,762.230149 C366.678728,762.230149 365.868137,761.756944 365.395293,761.216138 C364.922448,760.675333 364.111857,760.202128 363.639013,760.202128 C362.423127,760.202128 335.538535,747.087591 328.783612,743.234351 C326.081643,741.679535 322.974379,739.921917 321.826042,739.24591 C320.745254,738.637504 317.975736,737.082688 315.746611,735.798274 C313.517487,734.581462 310.207575,732.55344 308.451295,731.269027 C306.627466,730.052214 304.668538,728.835402 304.060595,728.564999 C303.114906,728.159395 286.903092,717.478484 279.607775,712.408431 C267.313816,703.823142 240.631872,682.393719 230.972332,673.267625 C228.945856,671.374805 225.906141,668.603176 224.21741,667.183561 C212.463845,657.111057 186.524942,630.003175 169.772734,610.128569 C161.937023,600.867272 159.842997,598.366046 156.600634,594.242404 C154.574158,591.605976 151.061598,587.009128 148.697375,584.102298 C146.400701,581.127867 141.131862,574.164995 137.078908,568.554137 C133.025955,563.010879 129.445846,558.143629 129.175649,557.738024 C127.757115,555.912805 106.681756,524.072875 104.452632,520.422437 C101.007621,514.676377 101.075171,512.715957 105.398321,504.40107 C107.289699,500.683032 109.181078,497.370597 109.518824,496.964993 C109.85657,496.559389 111.61285,493.78776 113.504228,490.813329 C115.395606,487.838898 117.827379,484.12086 118.908166,482.498443 C119.988954,480.943627 120.867094,479.456411 120.867094,479.32121 C120.867094,478.983206 123.163767,475.670772 132.147815,463.164642 C134.376939,459.987409 143.360986,448.022085 148.089432,441.80282 C154.033764,434.028739 165.787329,419.967793 171.461464,413.680928 C173.150195,411.855709 176.730304,407.867267 179.297174,404.960437 C189.497108,393.535918 215.638658,367.71245 226.311436,358.653956 C228.675659,356.625935 231.107431,354.462713 231.647825,353.854306 C232.661063,352.772695 245.360318,342.226985 249.54837,339.049752 C255.897997,334.182502 270.758827,322.960785 272.515107,321.743973 C281.971998,315.186705 290.618299,309.305443 290.820947,309.305443 C291.023595,309.305443 293.050071,308.02103 295.346745,306.398613 C299.737445,303.356582 315.543964,293.960084 325.878995,288.214024 C332.093524,284.833989 357.897329,272.125057 359.450961,271.787054 C360.464199,271.516651 361.612536,270.908245 362.085381,270.367439 C362.490676,269.826633 363.301267,269.421029 363.90921,269.421029 C364.449603,269.421029 366.881376,268.54222 369.245599,267.393008 C371.542272,266.311397 373.771397,265.364987 374.041594,265.364987 C374.37934,265.364987 375.865423,264.756581 377.419055,264.012973 C378.905138,263.269365 380.593869,262.660959 381.134262,262.660959 C381.607107,262.660959 382.282599,262.390556 382.620345,262.120153 C383.025641,261.84975 384.511724,261.173743 385.997807,260.700538 C387.48389,260.227334 389.307719,259.618927 390.05076,259.280924 C392.414983,258.266913 399.440103,255.765687 402.547367,254.886878 C404.236098,254.346072 407.54601,253.196861 409.977782,252.18285 C412.409554,251.23644 416.665155,249.681624 419.434674,248.735214 C422.204192,247.856405 425.041259,246.774794 425.649202,246.43679 C426.324695,246.031186 427.473032,245.760783 428.216073,245.760783 C428.959114,245.760783 430.107451,245.49038 430.782944,245.152377 C431.390887,244.814373 433.282265,244.205967 434.970996,243.732762 C436.659726,243.327158 439.361695,242.51595 441.050426,242.042745 C442.739157,241.501939 445.441126,240.893533 447.129856,240.62313 C448.818587,240.420328 451.250359,239.811921 452.601344,239.338717 C453.884779,238.865512 457.26224,238.189505 460.031759,237.919102 C462.801277,237.648699 465.773443,237.175494 466.719132,236.76989 C468.61051,236.026282 476.51377,235.079872 484.619677,234.539067 C487.591843,234.403865 491.239501,233.93066 492.725584,233.592657 C496.103045,232.849049 529.404814,232.781448 530.823348,233.525056 Z M622.50762,287.027464 C622.50762,287.230547 623.857013,289.261375 625.476284,291.56298 C630.401568,298.535489 641.399119,318.911462 641.399119,321.009984 C641.399119,321.348456 642.006345,322.83773 642.748511,324.394698 C643.490677,325.883971 644.097904,327.711716 644.097904,328.456353 C644.097904,329.133296 644.367783,329.945627 644.705131,330.284098 C645.379827,331.028735 649.360536,343.755257 650.170172,347.884607 C650.50752,349.373881 650.912338,351.810874 651.182216,353.300148 C651.452095,354.789422 651.856913,356.617167 652.194261,357.361804 C652.531609,358.106441 652.936427,360.272657 653.206305,362.100402 C653.408714,363.995841 653.948471,367.78672 654.353289,370.562185 C655.297864,376.790057 655.297864,397.369113 654.353289,404.747788 C652.801488,416.323507 650.170172,428.305391 647.876204,434.194792 C647.336447,435.480983 646.121993,438.865696 645.042479,441.641161 C643.962965,444.416626 641.466588,449.899861 639.442499,453.826128 C636.271426,460.054 634.787094,462.490994 629.92928,469.666586 C627.297964,473.592853 620.146183,481.716165 615.355838,486.319374 C604.290818,496.947374 589.784845,506.221488 576.290918,511.366252 C575.548752,511.637029 573.862011,512.313971 572.512618,512.92322 C571.095756,513.532468 568.869258,514.209411 567.452395,514.480188 C565.968063,514.750965 564.213853,515.360213 563.471687,515.834073 C562.729521,516.307933 560.637962,516.917181 558.748812,517.187958 C556.927132,517.458735 554.633164,517.932595 553.688589,518.338761 C552.001848,519.015703 548.493427,519.692646 539.857313,520.911143 C537.293467,521.249614 528.589884,521.858863 520.628466,522.197334 C495.965615,523.25878 487.178234,524.060172 477.692333,526.130628 L477.11055,526.25899 C475.288869,526.665155 472.725023,527.206709 471.51057,527.409792 C470.296116,527.612875 469.149132,528.01904 468.946723,528.357512 C468.744315,528.695983 468.002149,528.96676 467.259983,528.96676 C466.585286,528.96676 465.438302,529.237537 464.763606,529.643703 C464.156379,529.982174 461.255185,531.200671 458.286521,532.351473 C451.944375,534.788467 444.522714,538.782428 438.450447,543.047167 C431.973362,547.514988 419.761357,560.106121 415.308361,566.875547 C411.327652,572.832643 405.390324,584.272973 403.568644,589.350043 C400.195162,598.624157 397.833725,606.61208 397.428907,609.726016 C397.159028,611.689149 396.551802,614.329226 396.012045,615.615417 C395.224291,617.459628 395.011385,621.098207 395.000452,633.015818 L395.000262,634.481794 C395.0109,643.667556 395.343878,650.625361 395.742166,651.357988 C396.079514,652.03493 396.754211,655.351949 397.159028,658.668968 C397.631316,661.985987 398.373482,666.047643 398.845769,667.739999 C401.746964,677.961833 402.893948,681.617323 405.120446,687.371335 C407.819231,694.411539 412.744515,703.95643 416.590284,709.642748 C418.007147,711.605882 419.558948,713.975181 420.166175,714.9229 C422.9999,719.119945 431.703483,728.529447 437.235994,733.33574 C443.240791,738.480504 450.93233,744.099128 457.139537,747.822312 C469.081663,754.997904 490.537008,763.459687 504.773101,766.573623 C508.75381,767.453648 542.758508,766.8444 545.254884,765.89668 C546.401868,765.422821 549.235593,764.813572 551.6645,764.475101 C556.724723,763.798158 561.650006,762.850439 565.495776,761.970413 C566.980108,761.564248 569.746363,760.954999 571.568043,760.548834 C579.461991,758.856477 596.734218,753.50863 601.389623,751.342414 C602.536607,750.80086 603.683591,750.327 603.953469,750.327 C604.223348,750.327 605.370332,749.920834 606.517316,749.37928 C607.731769,748.837726 611.577539,747.14537 615.08596,745.588401 C633.505171,737.46509 651.924382,726.092454 670.748411,711.199716 C679.451995,704.294901 702.931429,681.008075 706.304911,675.931005 C707.451894,674.238648 708.733818,672.546292 709.138635,672.140126 C710.420559,670.989324 717.842219,660.902879 721.28317,655.555032 C723.104851,652.779567 725.12894,649.665631 725.803636,648.650217 C726.545802,647.634803 727.085559,646.687083 727.085559,646.484001 C727.085559,646.280918 727.962664,644.791644 729.109648,643.166982 C730.998798,640.323823 740.646956,621.504818 742.805985,616.292359 C743.345742,615.006168 744.425256,612.569175 745.167422,610.876818 C745.909588,609.184462 746.989102,606.476691 747.52886,604.784335 C748.136086,603.091978 749.552949,599.165711 750.699933,595.98408 C751.846916,592.80245 753.06137,589.14696 753.398718,587.860769 C754.95052,581.700591 756.70473,575.134247 757.379427,573.306502 C758.458941,570.124872 760.078212,561.189229 761.090257,552.862835 C761.630014,548.665791 762.30471,544.874912 762.642059,544.401052 C764.463739,541.557893 764.463739,487.470177 762.574589,484.423935 C762.30471,483.950075 761.630014,480.159197 761.157726,475.962152 C760.145682,467.771146 758.59388,459.512446 757.042079,454.1646 C756.569791,452.336855 755.490277,448.478282 754.680641,445.702817 C752.656552,438.459531 749.485479,428.91464 747.933677,425.597621 L747.751748,425.155497 C747.153595,423.688195 746.651754,422.317526 746.651754,422.009825 C746.651754,421.603659 746.044528,419.978997 745.302362,418.489723 C744.560195,416.932755 743.952969,415.375787 743.952969,415.037316 C743.952969,414.15729 732.48313,391.344324 730.054223,387.350362 C724.049425,377.467 720.338595,371.712987 717.167522,367.31286 C693.755558,334.481143 663.731569,308.418852 627.095555,289.058292 C624.531709,287.772101 622.50762,286.824382 622.50762,287.027464 Z M490.665562,262.981396 C488.974341,263.387452 484.915412,263.861183 481.532971,264.131887 C478.218179,264.402591 474.497494,265.011675 473.415113,265.485407 C472.265083,265.959139 469.220886,266.500547 466.650231,266.771251 C464.011927,267.041954 460.561837,267.718714 458.870617,268.192446 C457.179396,268.733854 450.482163,270.358077 443.987876,271.914625 C437.49359,273.471172 431.405196,274.960044 430.458113,275.230748 C429.511029,275.569128 427.413916,276.178212 425.722695,276.651944 C417.063646,279.088279 411.854687,281.186234 400.016144,287.14172 C391.830637,291.202279 387.771708,293.503262 379.721498,298.375933 C372.550723,302.774872 357.870929,313.196972 351.985482,318.137319 C338.861611,329.168503 322.152353,346.155174 314.440387,356.577275 C313.69625,357.592415 310.855,361.314594 308.216696,364.833745 C305.510743,368.420572 303.278332,371.533667 303.278332,371.80437 C303.278332,372.075074 302.737142,372.954862 301.993005,373.699298 C299.760594,376.270985 290.086812,393.054628 284.269014,404.559544 C282.510145,408.078695 276.759995,422.019947 275.204072,426.554238 C274.18934,429.531981 273.174608,432.306696 272.971661,432.645076 C272.701066,433.051132 272.498119,433.727892 272.430471,434.269299 C272.305195,434.70794 271.715936,436.713154 271.038605,438.834411 L270.874548,439.344998 C268.506839,446.586328 266.815619,452.812518 266.13913,456.873077 C265.733237,458.971032 265.124398,461.339691 264.718505,462.016451 C264.380261,462.760887 264.042017,464.588138 264.042017,466.07701 C264.042017,467.565881 263.771422,468.919401 263.365529,469.190105 C263.027285,469.393133 262.756689,470.882004 262.756689,472.438552 C262.824338,473.995099 262.486094,476.160731 262.080201,477.17587 C261.674308,478.258686 261.336064,480.491993 261.336064,482.251569 C261.336064,484.011144 260.99782,486.650507 260.659576,488.139379 C259.780141,491.65853 259.780141,536.053972 260.659576,539.573123 C260.99782,541.061995 261.336064,543.701358 261.336064,545.393258 C261.336064,547.085157 261.606659,549.38614 262.012552,550.468956 C262.350796,551.551772 262.824338,553.649727 263.027285,555.138599 C264.312612,565.966755 269.995113,588.232152 273.445203,596.420946 C273.783447,597.165382 274.73053,599.737069 275.542316,602.173404 C276.354102,604.609739 278.248269,609.347058 279.736543,612.663181 L280.006867,613.277114 C281.400741,616.439488 282.729491,619.40822 282.983686,620.107539 C284.353575,623.696783 290.18958,634.774494 293.940798,641.08314 L294.348688,641.763852 C295.36342,643.388076 297.66348,647.245606 299.489998,650.22335 C301.316516,653.268769 303.481279,656.584892 304.360713,657.667707 C305.240148,658.682847 305.984285,659.765663 305.984285,659.968691 C305.984285,660.171718 307.40491,662.201998 309.231428,664.502981 C310.990298,666.803964 313.15506,669.646356 314.102143,670.864523 C325.73774,686.023943 343.258784,703.213641 360.373936,716.139753 C365.244651,719.861932 373.497807,725.411363 382.833344,731.231497 C385.201052,732.720368 399.948495,740.909162 400.286739,740.909162 C400.422037,740.909162 403.398585,742.262681 406.916323,743.954581 C410.366413,745.64648 413.275312,747 413.41061,747 C413.816503,747 410.095818,742.330357 409.554627,742.127329 C408.134002,741.585922 399.272007,730.216357 394.265994,722.636647 C387.162868,711.740815 379.450903,695.769284 377.015545,686.768378 C376.542004,685.076479 375.933164,683.113875 375.662569,682.36944 C375.391974,681.625004 374.783134,679.188669 374.309593,676.955361 C373.836051,674.722054 373.227211,672.218043 372.888967,671.338255 C372.550723,670.458467 372.280128,668.834244 372.280128,667.751428 C372.280128,666.600937 372.009533,665.112065 371.60364,664.435305 C370.927152,663.081786 370.588907,659.968691 369.506526,644.809271 C368.424145,629.243796 368.559443,625.453941 370.588907,609.14403 C370.724205,607.587483 371.197747,605.557203 371.60364,604.542063 C371.941884,603.5946 372.280128,601.9027 372.280128,600.819885 C372.280128,599.737069 372.618372,598.654253 372.956616,598.451225 C373.362509,598.248197 373.633104,597.165382 373.633104,596.01489 C373.633104,594.932074 373.9037,593.510879 374.241944,592.834119 C374.580188,592.225035 375.797867,588.638208 377.015545,584.916029 C378.233224,581.193851 379.5862,577.539348 380.127391,576.794912 C380.668582,576.050476 381.074474,575.103012 381.074474,574.629281 C381.074474,573.275761 384.253969,566.643515 387.974654,560.349649 C402.383853,535.850944 425.993291,515.345123 450.414514,506.073514 C452.646925,505.261402 455.420527,504.178586 456.502908,503.704854 C457.652938,503.231122 459.750051,502.554363 461.238325,502.351335 C462.726599,502.080631 464.553118,501.539223 465.297255,501.133167 C466.71788,500.388731 477.135798,498.155424 483.562436,497.20796 C485.712165,496.882113 493.444917,496.305242 500.961597,495.960801 L501.827617,495.922117 C528.00771,494.636273 538.155033,493.756485 546.475838,491.861558 C548.370005,491.455502 550.805362,490.98177 551.887743,490.778742 C553.037773,490.575714 554.526047,490.169658 555.270184,489.898954 C556.014321,489.560575 557.84084,488.951491 559.329114,488.545435 C569.611734,485.364664 582.870903,478.597066 591.124059,472.3032 C597.280101,467.565881 606.006799,458.361948 610.133377,452.068082 C617.168854,441.442953 623.392545,426.215858 626.57204,412.003902 C631.104511,391.159701 629.210344,363.818605 621.566027,341.282504 C617.574747,329.439207 608.306859,310.692961 603.0979,304.060715 C595.927125,294.856782 593.491767,291.946715 589.229892,287.953832 C583.209147,282.336726 574.753044,276.448916 566.702835,272.320681 C563.320394,270.628781 560.343846,269.207586 560.073251,269.207586 C559.735006,269.207586 558.584977,268.80153 557.434947,268.260122 C551.008309,265.417731 540.319795,263.2521 525.504704,261.627876 C514.207351,260.409708 499.595206,261.018792 490.665562,262.981396 Z M281.373152,349.071291 C252.464926,370.869198 224.565126,395.838937 206.749591,415.747242 C202.581428,420.403761 198.749408,424.655365 198.144352,425.195252 C196.463641,426.747425 186.043234,438.557436 184.093609,441.05441 C183.152411,442.269154 179.387619,446.993159 175.690055,451.649678 C163.925079,466.294092 154.513099,478.846447 154.513099,479.791248 C154.513099,480.128677 154.0425,480.736049 153.504672,481.20845 C152.899616,481.68085 149.134824,487.147199 145.101118,493.288405 C141.000184,499.429611 137.168163,505.233388 136.563107,506.178189 C134.815168,508.675163 133,512.116937 133,512.994253 C133,513.804082 135.15131,517.313343 140.596813,525.411636 C148.933139,537.82902 154.849241,546.534686 155.992124,548.019373 C156.664408,548.964174 160.429201,553.958122 164.193993,559.154527 C168.026014,564.350932 171.790806,569.209908 172.597547,569.884766 C173.33706,570.627109 174.009344,571.436939 174.009344,571.774368 C174.009344,572.584197 187.589488,589.455642 194.245103,596.879078 C195.993042,598.76868 198.480494,601.670569 199.892291,603.357713 C201.23686,605.044858 206.010078,610.376234 210.514384,615.167725 C234.313249,640.879807 257.574287,661.935371 284.263975,682.113619 C289.238879,685.892823 293.608727,689 293.944869,689 C294.213783,689.064655 293.47427,687.917397 292.264158,686.432709 C280.431954,672.733096 266.986267,650.867703 256.902002,629.00231 C253.943951,622.658646 247.288336,605.449772 245.876539,600.658282 C245.40594,598.971137 244.800884,597.351479 244.599199,596.946564 C244.330285,596.609135 243.72523,594.584562 243.25463,592.559988 C242.784031,590.535415 241.97729,587.970955 241.57392,586.823697 C241.103321,585.743924 240.498265,583.111979 240.229351,581.087405 C239.960437,579.062832 239.42261,576.835801 239.086468,576.160943 C238.750325,575.486086 238.212498,573.528998 237.876356,571.774368 C237.607442,570.019737 237.002386,566.78042 236.531787,564.553389 C235.590589,559.559441 234.783848,553.82315 233.708193,544.645084 C232.56531,534.994617 232.56531,491.263831 233.708193,481.883308 C235.11999,470.073296 236.666244,460.692772 238.212498,454.214137 C238.817554,451.784649 239.691524,447.93796 240.162123,445.643443 C240.69995,443.281441 241.372234,440.58201 241.775605,439.569723 C242.111747,438.489951 242.784031,436.195434 243.25463,434.305832 C243.72523,432.483716 244.330285,430.324171 244.599199,429.581827 C244.935341,428.839484 246.27991,424.925309 247.691707,420.876162 C250.111931,413.520212 253.271667,405.556889 257.507058,396.176366 C259.456683,391.722304 261.473536,387.943101 267.793009,376.268061 C273.104055,366.68508 285.070716,348.666376 288.76828,344.752201 C291.860788,341.512883 289.843935,342.660142 281.373152,349.071291 Z M734.533017,343.000222 L734.518193,343.005969 C734.316212,343.141282 735.124137,344.291438 736.268698,345.50925 C738.086531,347.403625 740.644961,350.989406 745.82915,358.769874 C752.427207,368.512373 769.460969,400.310808 769.460969,402.746433 C769.460969,403.15237 770.336222,405.385026 771.413456,407.685338 C773.500596,412.353619 777.203588,422.705024 779.425383,430.214868 C782.724412,441.51346 783.599664,444.625647 784.340263,448.143772 C784.744226,450.173459 785.484824,453.556272 786.023441,455.585959 C786.494731,457.615646 787.235329,461.742677 787.639292,464.719552 C787.975927,467.696427 788.581871,471.349864 788.918507,472.838301 C792.486844,487.519706 792.217536,543.606732 788.447217,555.378919 C788.110582,556.529075 787.571965,559.844231 787.302656,562.821105 L787.271372,563.153956 C786.988648,566.055519 786.409948,569.363715 785.956114,570.601573 C785.484824,571.887042 784.87888,574.322667 784.676898,576.014073 C784.40759,577.705479 783.801646,580.614697 783.195702,582.441416 C782.589758,584.335791 781.916486,586.771416 781.579851,587.853916 C777.809532,601.588133 773.971886,612.751413 770.066913,621.208444 C768.989679,623.508756 768.114427,625.6061 768.114427,625.809068 C768.114427,626.688599 756.062872,650.435941 754.379694,652.939222 C753.437114,654.360003 752.629189,655.713128 752.629189,655.983753 C752.629189,656.254378 750.205412,660.17844 747.243019,664.711408 C742.462794,671.950627 740.712288,674.453908 738.625148,677.160157 C738.355839,677.566095 736.268698,680.340001 733.912249,683.452188 C731.623127,686.496719 729.872622,689 730.007276,689 C730.209258,689 734.046903,686.226094 738.625148,682.775626 C785.215515,647.797348 832.277173,598.205321 869.980361,544.55392 C873.548698,539.412045 889.909189,514.988141 890.851768,513.364391 C891.323058,512.552516 890.717114,511.131735 888.360665,507.342985 C883.715093,499.968455 874.895241,486.572519 870.788286,480.821738 C866.344696,474.529707 861.093181,467.290489 859.342676,465.057833 C858.265442,463.637052 855.572357,460.25424 853.485216,457.480334 C837.73067,437.048148 814.368159,411.135807 795.651219,393.274558 C785.080861,383.193778 767.441155,367.700498 760.439135,362.220343 C758.284667,360.528936 754.985638,357.890343 753.033152,356.334249 C747.377673,351.733625 734.787502,342.735344 734.518193,343.005969 Z" id="Shape" fill="#FFFFFF" fill-rule="nonzero" transform="translate(512.000000, 512.500000) scale(-1, 1) translate(-512.000000, -512.500000) "></path>
    </g>
</svg>