<?xml version="1.0" standalone="no"?>
<!DOCTYPE svg PUBLIC "-//W3C//DTD SVG 20010904//EN"
 "http://www.w3.org/TR/2001/REC-SVG-20010904/DTD/svg10.dtd">
<svg version="1.0" xmlns="http://www.w3.org/2000/svg"
 width="700.000000pt" height="700.000000pt" viewBox="0 0 700.000000 700.000000"
 preserveAspectRatio="xMidYMid meet">
<metadata>
Created by potrace 1.11, written by Peter Selinger 2001-2013
</metadata>
<g transform="translate(0.000000,700.000000) scale(0.100000,-0.100000)"
fill="#000000" stroke="none">
<path d="M3329 5726 c-2 -2 -34 -7 -70 -10 -58 -5 -129 -14 -234 -32 -16 -3
-55 -11 -85 -19 -30 -8 -66 -16 -80 -19 -197 -36 -606 -205 -880 -364 -473
-274 -913 -655 -1301 -1127 -128 -155 -280 -374 -413 -591 l-37 -62 18 -33
c86 -155 309 -476 452 -649 147 -178 407 -447 566 -585 44 -39 82 -72 85 -75
16 -16 166 -133 230 -180 41 -30 77 -57 80 -60 3 -3 12 -9 21 -15 9 -5 27 -17
40 -26 71 -49 204 -132 279 -174 84 -48 335 -175 345 -175 3 0 24 -9 48 -20
114 -52 320 -121 477 -159 167 -40 181 -43 400 -70 74 -9 464 -7 495 2 11 4
40 9 65 11 136 14 374 70 545 127 466 158 985 471 1390 838 69 63 361 355 412
414 189 213 374 466 532 725 l63 102 -82 133 c-211 342 -424 611 -725 913
-183 185 -329 312 -518 453 -121 91 -359 251 -371 251 -3 0 -29 15 -58 34 -62
39 -317 168 -391 197 -29 11 -65 27 -82 34 -123 54 -379 132 -530 161 -22 4
-46 8 -53 10 -30 6 -150 24 -192 29 -59 7 -435 17 -441 11z m431 -463 c661
-97 1211 -553 1425 -1182 68 -202 92 -352 92 -586 1 -176 -12 -291 -48 -425
-11 -41 -22 -86 -25 -99 -8 -37 -74 -200 -112 -276 -79 -158 -184 -305 -314
-438 l-90 -92 6 45 c4 25 12 79 19 121 14 80 15 236 3 329 -7 57 -41 200 -56
235 -4 11 -21 51 -37 90 -102 253 -336 494 -598 618 -69 33 -213 82 -265 91
-19 3 -46 8 -60 11 -38 8 -105 14 -210 20 -155 9 -276 42 -372 102 -21 13 -40
23 -43 23 -6 0 -44 32 -108 90 -116 105 -201 262 -235 431 -10 51 -8 228 3
281 54 257 233 474 470 571 142 57 339 72 555 40z m-1461 -520 c-63 -300 2
-647 167 -894 27 -40 57 -84 66 -98 30 -44 171 -181 238 -231 133 -98 270
-163 434 -205 95 -24 139 -30 295 -41 153 -10 192 -17 281 -52 243 -94 441
-333 488 -588 8 -50 8 -238 -1 -279 -66 -287 -252 -502 -512 -592 -103 -36
-173 -44 -336 -39 -501 16 -969 247 -1294 641 -28 33 -52 62 -55 65 -16 16
-105 160 -144 231 -92 172 -141 321 -190 572 -17 91 -17 406 0 522 57 381 223
719 489 992 44 46 83 83 86 83 3 0 -2 -39 -12 -87z m-933 -595 c-19 -68 -38
-134 -40 -148 -3 -14 -7 -36 -11 -50 -48 -216 -55 -582 -15 -815 19 -113 44
-218 75 -318 14 -43 25 -83 25 -89 0 -26 -323 332 -462 512 -77 100 -178 247
-178 260 0 12 148 229 170 250 3 3 27 32 52 65 95 124 407 468 416 460 2 -2
-12 -59 -32 -127z m4309 55 c151 -157 240 -257 337 -378 76 -96 189 -253 212
-297 l19 -36 -58 -83 c-64 -92 -190 -259 -227 -300 -13 -15 -43 -51 -68 -80
-92 -110 -280 -303 -287 -295 -3 2 6 40 20 83 28 85 53 181 61 228 3 17 12 73
22 125 18 104 25 450 11 576 -9 84 -31 202 -53 288 -9 34 -17 68 -19 76 -2 8
-15 50 -28 93 -25 78 -25 78 -4 60 12 -10 40 -37 62 -60z"/>
</g>
</svg>
