<?xml version="1.0" standalone="no"?>
<!DOCTYPE svg PUBLIC "-//W3C//DTD SVG 20010904//EN"
 "http://www.w3.org/TR/2001/REC-SVG-20010904/DTD/svg10.dtd">
<svg version="1.0" xmlns="http://www.w3.org/2000/svg"
 width="700.000000pt" height="700.000000pt" viewBox="0 0 700.000000 700.000000"
 preserveAspectRatio="xMidYMid meet">
<metadata>
Created by potrace 1.11, written by Peter Selinger 2001-2013
</metadata>
<g transform="translate(0.000000,700.000000) scale(0.100000,-0.100000)"
fill="#000000" stroke="none">
<path d="M3245 5863 c-123 -16 -251 -36 -310 -49 -38 -9 -81 -18 -95 -21 -14
-2 -63 -15 -110 -28 -418 -118 -805 -304 -1185 -570 -102 -71 -282 -209 -330
-252 -11 -10 -61 -54 -110 -97 -353 -312 -725 -754 -1025 -1218 l-82 -127 43
-73 c132 -227 346 -519 543 -743 453 -513 951 -901 1501 -1170 320 -157 786
-316 1030 -354 39 -6 88 -14 110 -17 22 -4 137 -8 255 -9 330 -4 515 29 885
157 110 38 209 73 220 78 11 5 61 25 110 45 126 51 318 145 431 210 53 30 97
55 100 55 9 0 245 157 344 228 123 89 315 244 409 330 389 358 753 799 980
1190 l42 73 -52 82 c-336 528 -746 1007 -1145 1342 -32 27 -61 52 -64 56 -3 3
-61 49 -130 101 -295 223 -543 369 -890 525 -117 53 -358 135 -510 174 -65 17
-252 54 -375 74 -45 8 -543 15 -590 8z m475 -138 c119 -13 148 -17 240 -36
706 -148 1307 -640 1596 -1309 68 -158 126 -354 149 -505 3 -22 8 -56 11 -75
20 -124 26 -431 10 -535 -3 -22 -10 -69 -15 -105 -14 -91 -18 -111 -51 -236
-139 -538 -499 -1024 -980 -1324 -96 -60 -329 -175 -375 -184 l-30 -7 31 28
c146 134 278 381 343 646 52 210 59 341 27 522 -64 371 -274 654 -589 800 -81
37 -227 81 -302 91 -27 3 -52 8 -55 9 -7 5 -163 15 -300 20 -97 3 -178 14
-285 39 -147 33 -333 141 -434 251 -128 141 -225 340 -256 525 -4 25 -9 54
-11 65 -9 41 -5 213 6 293 38 276 139 490 315 667 111 112 208 182 335 243 88
42 238 97 293 108 18 4 48 10 67 13 39 8 174 6 260 -4z m-845 -92 c-16 -9 -66
-45 -109 -82 -302 -250 -464 -624 -460 -1056 3 -209 83 -456 211 -647 189
-281 528 -451 916 -457 197 -4 288 -14 421 -47 219 -54 397 -169 512 -330 124
-173 194 -411 189 -637 -9 -361 -177 -723 -425 -919 -85 -67 -259 -150 -343
-163 -212 -34 -373 -37 -502 -10 -11 2 -41 7 -67 10 -26 3 -66 9 -90 14 -24 5
-79 16 -123 25 -44 9 -105 23 -135 32 -30 8 -88 24 -129 35 -88 24 -204 75
-320 141 -46 26 -86 48 -88 48 -9 0 -175 119 -243 174 -73 59 -239 220 -290
281 -266 318 -460 736 -506 1090 -3 22 -7 46 -9 53 -18 54 -25 386 -12 538 11
119 60 342 105 480 56 168 177 418 254 524 126 173 183 243 266 327 256 262
565 456 907 569 81 27 113 30 70 7z m2315 -422 c142 -88 335 -226 456 -326
149 -124 401 -364 535 -511 73 -80 243 -282 268 -318 8 -12 18 -23 21 -26 32
-25 370 -512 370 -534 0 -20 -235 -372 -300 -449 -6 -7 -23 -28 -38 -48 -225
-293 -542 -615 -837 -850 -185 -148 -505 -366 -505 -345 0 3 25 31 57 63 230
237 439 586 539 903 27 83 70 255 78 313 3 20 8 52 11 70 19 126 23 186 20
377 -1 118 -5 226 -8 240 -3 14 -8 48 -12 75 -27 219 -121 512 -238 739 -113
220 -264 422 -462 619 -49 50 -83 86 -75 82 8 -5 62 -38 120 -74z m-3340 -13
c-148 -143 -273 -300 -377 -472 -61 -98 -173 -325 -173 -348 0 -8 -4 -18 -9
-23 -30 -33 -112 -344 -140 -535 -27 -175 -23 -522 8 -695 84 -482 293 -905
616 -1249 36 -38 65 -71 65 -73 0 -8 -56 26 -220 136 -158 106 -233 164 -423
323 -236 199 -545 529 -741 793 -33 44 -78 105 -101 135 -23 30 -52 73 -65 95
-13 22 -27 42 -30 45 -11 9 -100 158 -100 167 0 23 240 371 357 518 105 132
124 155 218 265 101 118 370 391 485 491 171 149 356 289 525 397 55 36 116
75 135 88 65 43 55 24 -30 -58z"/>
</g>
</svg>
