<svg xmlns="http://www.w3.org/2000/svg" viewBox="0 0 50 50"><path d="M36 5H14a9 9 0 00-9 9v22a9 9 0 009 9h22a9 9 0 009-9V14a9 9 0 00-9-9zm2.19 16.254a3.111 3.111 0 012.07-.121c.27.084.51.196.74.335v1.23c-.72-.494-1.55-.634-2.19-.289-.68.373-1.08 1.155-1.06 1.975-.01.904.29 1.742.92 2.133.56.382 1.44.382 2.33.242v1.025a5.29 5.29 0 01-1.1.214c-.63.047-1.33-.047-1.95-.382-.63-.326-1.09-.894-1.35-1.463a4.63 4.63 0 01-.35-1.752c-.03-1.21.62-2.57 1.94-3.147zM34 18.01a1 1 0 110 2 1 1 0 010-2zm.75 3v7h-1.5v-7h1.5zM27 26.175c.64.261 1.42.532 2.03.59.61.068 1.28-.01 1.67-.223.19-.116.23-.278.23-.458s-.036-.282-.123-.417c-.159-.246-.597-.432-1.287-.597-.34-.097-.71-.194-1.12-.416-.41-.184-1.243-.852-1.081-1.991.087-.609.718-1.205 1.601-1.483 1.029-.325 2.15-.164 3.08.281V22.7c-.83-.426-1.82-.641-2.66-.361-.25.077-.58.251-.58.564 0 .751.87.893 1.2 1 .34.106.71.203 1.11.406.4.194 1.202.678 1.202 1.783 0 1.058-.522 1.447-.952 1.621-.89.387-1.68.319-2.45.213-.65-.116-1.28-.31-1.87-.677v-1.074zm-6.75-5.163l1.5-.002.003 2.42c.014.79.012 1.651.003 2.383-.035.391.402.847.976.917.306.034.534.009.886-.14.208-.082.42-.152.632-.225V21.01l1.5.001v6.818h-1.5v-.236c-.041.022-.08.046-.12.067a2.77 2.77 0 01-1.514.343 2.71 2.71 0 01-1.533-.586c-.442-.356-.776-.915-.819-1.529-.027-.88-.02-1.634-.011-2.457l-.003-2.419zm-11-.002h1.5v.688c.37-.134.737-.274 1.109-.401a2.18 2.18 0 011.733.141c.218.117.409.282.577.469.562-.208 1.123-.417 1.689-.611a2.18 2.18 0 011.733.141 2.222 2.222 0 011.158 1.879l.004.317.006.625-.006 1.25-.003 2.5h-1.5l-.006-4.844c-.042-.425-.519-.797-1.019-.661-.51.135-1.024.255-1.537.379.034.143.052.287.061.433l.004.317.006.625-.006 1.25-.003 2.5h-1.5l-.006-4.844c-.042-.426-.519-.797-1.019-.661-.489.13-.983.245-1.475.364v5.14h-1.5V21.01zm29.518 12.922c-2.214 1.57-4.688 2.605-7.285 3.277a25.289 25.289 0 01-7.986.729c-2.688-.18-5.313-.836-7.787-1.794-2.466-.99-4.797-2.263-6.857-3.931a.25.25 0 01.276-.415l.014.008c2.249 1.217 4.653 2.149 7.067 2.889 2.433.692 4.909 1.187 7.4 1.288a31.27 31.27 0 007.449-.617c2.442-.504 4.905-1.236 7.17-2.279l.039-.018a.5.5 0 01.5.863zm1.114 2.96c-.278.21-.556.14-.417-.21.417-1.12 1.32-3.501.903-4.061-.486-.63-2.987-.28-4.098-.14-.347 0-.347-.28-.069-.49.972-.7 2.292-.98 3.404-.98 1.111 0 2.084.21 2.292.56.346.419-.14 3.71-2.015 5.321z"/></svg>
