<svg xmlns="http://www.w3.org/2000/svg" data-name="Layer 1" viewBox="0 0 24 24">
  <path d="M22.60229 10.00391a1.00005 1.00005 0 00-.98388-.82227H12.2a.99974.99974 0 00-1 1v3.86816a.99974.99974 0 001 1h3.9624a3.65162 3.65162 0 01-1.13183 1.1875 5.0604 5.0604 0 01-2.83057.78516 4.93525 4.93525 0 01-4.64624-3.4378l-.00029-.00166a4.90382 4.90382 0 010-3.167l.00024-.00165A4.9356 4.9356 0 0112.2 6.97754a4.37756 4.37756 0 013.1313 1.21777 1.00053 1.00053 0 001.39844-.01562l2.86816-2.86817a.99918.99918 0 00-.02539-1.43847A10.62342 10.62342 0 0012.2 1a10.949 10.949 0 00-9.82866 6.05878l-.00147.00177A10.92175 10.92175 0 001.2 12a11.07862 11.07862 0 001.16992 4.93945l.00147.00177A10.949 10.949 0 0012.2 23a10.5255 10.5255 0 007.29468-2.687l.00073-.00049.00079-.00085.00019-.00013.00006-.00012a10.78575 10.78575 0 003.30365-8.08386 12.51533 12.51533 0 00-.19781-2.22364zM12.2 3a8.68219 8.68219 0 015.2085 1.67285L15.95483 6.126A6.46322 6.46322 0 0012.2 4.97754a6.88648 6.88648 0 00-5.98931 3.55078l-1.06921-.82874-.585-.45367A8.95257 8.95257 0 0112.2 3zM3.67944 14.90332a9.02957 9.02957 0 010-5.80664l1.78223 1.38184a6.85381 6.85381 0 000 3.042zM12.2 21a8.9528 8.9528 0 01-7.6436-4.24609l.37841-.29352 1.27588-.98969A6.88482 6.88482 0 0012.2 19.02246a7.27662 7.27662 0 003.30573-.75079l1.69166 1.31333A8.88989 8.88989 0 0112.2 21zm6.52588-2.76074l-.183-.142-1.37735-1.06926a5.60626 5.60626 0 001.39966-2.79553.9998.9998 0 00-.9834-1.18262H13.2v-1.86821h7.54883c.03418.3457.05127.69531.05127 1.0459a9.05156 9.05156 0 01-2.07427 6.01172z"/>
</svg>