<svg xmlns="http://www.w3.org/2000/svg" viewBox="0 0 512 512"><path d="M256 0C115.39 0 0 115.39 0 256s115.39 256 256 256 256-115.39 256-256S396.61 0 256 0zm105 241l4.379.25C397.008 244.02 421 269.754 421 301c0 33.09-26.91 60-60 60-52.734 0-70.004-49.027-85.254-92.27C256.527 214.148 241.56 181 196 181c-41.352 0-75 33.648-75 75s33.648 75 75 75c20.04 0 38.863-7.809 53.027-21.973l21.211 21.211C250.418 350.07 224.051 361 196 361c-57.89 0-105-47.11-105-105s47.11-105 105-105c70.078 0 91.129 59.75 108.047 107.754C319.824 303.55 331.016 331 361 331c16.54 0 30-13.46 30-30s-13.46-30-30-30c-33.09 0-60-26.91-60-60s26.91-60 60-60 60 26.91 60 60h-30c0-16.54-13.46-30-30-30s-30 13.46-30 30 13.46 30 30 30zm0 0"/></svg>
