<svg xmlns="http://www.w3.org/2000/svg" viewBox="0 0 30 30"><path d="M24 4H6a2 2 0 00-2 2v18a2 2 0 002 2h18a2 2 0 002-2V6a2 2 0 00-2-2zm-3 14.453c0 1.132-.914 2.535-2.999 2.535-1.862 0-2.333-1.194-2.333-1.999 0-.991.598-2.005 2.335-2.004 1.573 0 1.664-.401 1.664-1.193v-4.028l-7.331 1.195v6.632c0 1.132-.914 2.41-2.999 2.41-1.862 0-2.333-1.194-2.333-1.999 0-.991.598-2.005 2.335-2.005 1.573 0 1.664-.401 1.664-1.193V10c0-.33.244-.591.558-.645l8.688-1.349s.058-.005.085-.005a.664.664 0 01.666.665v9.787z"/></svg>
