<svg xmlns="http://www.w3.org/2000/svg" viewBox="0 0 24 24">
  <defs/>
  <g fill="#000">
    <path d="M7.64 16.56l.066-.066.772-.84.022-.023.42-.465.022.022A4.363 4.363 0 017.595 12a4.444 4.444 0 014.438-4.45 4.334 4.334 0 012.208.598l.883-1.594.044-.09.883-1.637.045-.089.883-1.638.044-.089.464-.863.33-.62A11.662 11.662 0 0012.167 0h-.2C5.393.01.053 5.314 0 11.89V12a11.983 11.983 0 003.775 8.723l.596-.642.596-.642.067-.067L6.293 18l.066-.066 1.28-1.373zM20.357 3.387l-1.148 1.24-.066.067-1.259 1.372-.066.067-1.259 1.373-.066.066-.464.51-.772.818a4.45 4.45 0 01-3.202 7.506 4.277 4.277 0 01-2.053-.51l-.883 1.595-1.259 2.236-.662 1.173-.044.089-.861 1.528c5.776 3.183 13.04 1.081 16.224-4.695A11.943 11.943 0 0024 12a12.128 12.128 0 00-3.643-8.612z"/>
    <path d="M12.033 11.136a.841.841 0 10.84.842.84.84 0 00-.84-.842z"/>
  </g>
</svg>