<svg xmlns="http://www.w3.org/2000/svg" viewBox="0 0 128 128">
  <path fill-rule="evenodd" d="M64 0c35.346 0 64 28.654 64 64 0 35.346-28.654 64-64 64-35.346 0-64-28.654-64-64C0 28.654 28.654 0 64 0zm26 30H37.961C33.573 30 30 33.572 30 37.96v52.032c0 4.388 3.573 7.96 7.961 7.96H82l-2.058-7.105 4.97 4.582 4.7 4.31L98 107V37.96c-.039-4.388-3.612-7.96-8-7.96zM57.713 47l.394.476c-7.095 2.02-10.327 5.15-10.327 5.15s.867-.476 2.325-1.11c4.218-1.861 7.569-2.337 8.948-2.495.237-.04.434-.08.67-.08a33.186 33.186 0 017.963-.079 32.65 32.65 0 0111.864 3.764s-3.114-2.971-9.815-4.992l.552-.634h.113c.804.011 5.765.24 10.924 4.12 0 0 5.676 10.26 5.676 22.898 0-.04-3.311 5.665-12.022 5.942 0 0-1.42-1.703-2.602-3.169 5.164-1.466 7.135-4.674 7.135-4.674-1.616 1.07-3.154 1.822-4.533 2.337-1.971.832-3.863 1.347-5.716 1.703-3.784.713-7.253.515-10.209-.04-2.247-.435-4.178-1.03-5.794-1.703a23.046 23.046 0 01-2.878-1.347c-.118-.079-.236-.119-.354-.198-.08-.04-.119-.079-.158-.079-.71-.396-1.104-.673-1.104-.673s1.892 3.13 6.898 4.635A160.73 160.73 0 0153.023 80C44.31 79.723 41 74.018 41 74.018c0-12.637 5.676-22.898 5.676-22.898C52.352 46.881 57.713 47 57.713 47zm13.343 16c-2.204 0-3.944 1.782-3.944 4s1.779 4 3.944 4C73.26 71 75 69.218 75 67s-1.779-4-3.944-4zm-14.112 0C54.74 63 53 64.782 53 67s1.779 4 3.944 4c2.204 0 3.944-1.782 3.944-4 .038-2.218-1.74-4-3.944-4z"/>
</svg>
