<svg xmlns="http://www.w3.org/2000/svg" fill="#000000" viewBox="0 0 50 50"><defs/><path d="M7.3847656 1C5.3607656 1 4 2.4607656 4 4.6347656V45.363281C4 47.538281 5.3607656 49 7.3847656 49c1.108 0 1.8529531-.299094 2.6269534-.746094l34.757812-19.892578C45.320531 28.043328 47 27.078 47 25c0-2.08-1.678469-3.045281-2.230469-3.363281l-2.566406-1.47461C39.90096 12.564756 32.841808 7.0195313 24.5 7.0195312c-1.497214 0-2.945043.1982642-4.339844.5351563L10.015625 1.7460938C9.237625 1.2980937 8.4927656 1 7.3847656 1zM24.5 9.0195312c9.124562 0 16.5 7.3754378 16.5 16.4999998 0 .973644-.104019 1.919739-.265625 2.845703l-7.052734 4.03711C35.130275 30.478462 36 28.093634 36 25.5 36 19.149 30.851 14 24.5 14S13 19.149 13 25.5 18.149 37 24.5 37c.432884 0 .858831-.027626 1.279297-.074219l-7.070313 4.046875C12.45608 38.628715 8 32.602733 8 25.519531c0-9.124562 7.375438-16.4999996 16.5-16.4999998zM25 19h4v2.875h-2.5v6.5c0 1.461-1.389 2.625-2.875 2.625C22.168 31 21 29.825937 21 28.335938c0-1.461 1.17025-2.66211 2.65625-2.66211.486 0 .94375.142094 1.34375.371094V19z"/></svg>
