<svg xmlns="http://www.w3.org/2000/svg" viewBox="0 0 97.75 97.75"><path d="M48.875 0C21.883 0 0 21.882 0 48.875S21.883 97.75 48.875 97.75 97.75 75.868 97.75 48.875 75.867 0 48.875 0zM7.739 62.171c-.027.193-.166.329-.34.329-.175 0-.315-.136-.339-.331l-.621-4.633.621-4.713c.023-.196.164-.333.339-.333.174 0 .313.136.34.33l.736 4.717-.736 4.634zm3.154 2.82c-.03.2-.176.342-.354.342-.18 0-.328-.144-.353-.343l-.834-7.454.834-7.622c.024-.199.173-.344.353-.344.179 0 .324.141.354.344l.948 7.622-.948 7.455zm3.405 1.261c-.026.241-.205.415-.426.415-.224 0-.402-.174-.425-.417l-.792-8.712s.792-9.043.792-9.044c.022-.241.201-.416.425-.416.221 0 .399.175.426.416l.899 9.044-.899 8.714zm3.434.277c-.024.277-.238.488-.497.488-.264 0-.479-.211-.5-.488l-.748-8.989.748-9.292c.021-.28.236-.49.5-.49.259 0 .473.21.497.487l.85 9.294-.85 8.99zm3.461.075c-.021.318-.268.562-.57.562-.305 0-.551-.243-.571-.562l-.706-9.063.706-8.619c.021-.321.267-.563.571-.563.303 0 .549.242.57.56l.801 8.623-.801 9.062zm3.489.003v-.004c-.021.355-.302.636-.643.636-.344 0-.625-.28-.644-.634l-.661-9.062.661-14.024c.019-.357.3-.636.644-.636.341 0 .622.279.643.635l.75 14.025-.75 9.064zm3.463-.007v-.005c-.018.398-.333.708-.716.708-.384 0-.698-.31-.713-.705l-.622-9.007s.619-17.229.619-17.23c.018-.397.332-.708.716-.708.383 0 .698.311.716.708l.701 17.23-.701 9.009zm3.595-.138v-.005c-.018.438-.362.779-.786.779-.427 0-.773-.342-.788-.775l-.577-8.914s.577-18.667.577-18.669c.015-.438.361-.781.788-.781.424 0 .769.343.786.781l.652 18.669-.652 8.915zm3.571-.06c-.014.478-.393.853-.859.853-.47 0-.846-.375-.858-.849l-.536-8.858.534-19.297c.015-.479.391-.855.86-.855.467 0 .846.375.859.855l.603 19.298-.603 8.853zm3.597-.077v-.007c-.014.519-.423.929-.932.929-.511 0-.92-.41-.931-.924l-.493-8.773.49-18.805c.014-.52.423-.927.934-.927.509 0 .918.406.932.925l.555 18.807-.555 8.775zm3.626-.055v-.006c-.011.561-.453 1-1.005 1-.551 0-.994-.439-1.005-.994l-.449-8.719.449-18.119c.011-.561.454-1 1.005-1 .552 0 .994.44 1.005 1l.503 18.121-.503 8.717zm3.698-.916l-.045.854c-.005.295-.13.563-.324.758-.195.193-.461.314-.753.314-.329 0-.625-.152-.824-.39-.146-.176-.239-.399-.25-.641-.002-.012-.003-.023-.003-.037 0 0-.408-8.654-.408-8.667l.404-21.352.004-.203c.005-.377.202-.708.497-.899.167-.11.365-.175.58-.175.218 0 .424.068.595.184.285.193.476.519.482.889l.452 21.562-.407 7.803zm3.593.738v-.01c-.013.631-.525 1.146-1.15 1.146-.627 0-1.143-.515-1.151-1.138l-.232-4.209-.238-4.325.469-23.397.002-.118c.004-.356.17-.674.427-.885.197-.164.45-.262.725-.262.214 0 .414.061.585.165.33.201.559.565.565.98l.509 23.518-.511 8.535zm31.047 1.158s-28.909.003-28.937 0c-.625-.062-1.121-.559-1.127-1.198V32.92c.006-.609.215-.922 1.004-1.227 2.025-.785 4.322-1.248 6.676-1.248 9.627 0 17.515 7.38 18.347 16.787 1.242-.52 2.606-.81 4.037-.81 5.767 0 10.438 4.674 10.438 10.439.001 5.765-4.671 10.389-10.438 10.389z"/></svg>
