<svg xmlns="http://www.w3.org/2000/svg" viewBox="0 0 351 351">
  <path fill-rule="nonzero" d="M175.106.056C78.427.056.056 78.427.056 175.106c0 96.678 78.371 175.05 175.05 175.05 96.679 0 175.05-78.372 175.05-175.05 0-96.679-78.372-175.05-175.05-175.05zm92.897 77.8v119.022l-50.804 50.803h-37.74l-24.675 24.675H128.66V247.68H82.212V111.24l13.063-33.384h172.728zm-17.42 17.418H111.24v121.924h39.191v24.676l24.675-24.675h46.446l29.031-29.03V95.274zm-29.027 33.385v50.749h-17.42v-50.749h17.42zm-46.45 0v50.749h-17.42v-50.749h17.42z"/>
</svg>
